<?xml version="1.0" standalone="no"?>
<!DOCTYPE svg PUBLIC "-//W3C//DTD SVG 20010904//EN"
 "http://www.w3.org/TR/2001/REC-SVG-20010904/DTD/svg10.dtd">
<svg version="1.0" xmlns="http://www.w3.org/2000/svg"
 width="300.000000pt" height="318.000000pt" viewBox="0 0 300.000000 318.000000"
 preserveAspectRatio="xMidYMid meet">
<metadata>
Created by potrace 1.10, written by Peter Selinger 2001-2011
</metadata>
<g transform="translate(0.000000,318.000000) scale(0.050000,-0.050000)"
fill="#000000" stroke="none">
<path d="M2954 5182 c-179 -180 -255 -295 -154 -232 10 6 200 13 420 14 221 1
399 8 396 15 -8 17 -428 421 -438 421 -5 -1 -105 -99 -224 -218z"/>
<path d="M2740 4575 l0 -205 -210 0 -210 0 0 -922 0 -922 -122 -11 c-216 -20
-183 -74 37 -60 l145 10 0 117 0 118 196 0 197 0 -4 485 c-5 621 1 568 -64
591 -51 18 163 13 225 -5 13 -4 19 -223 18 -613 l-3 -608 -162 -6 -163 -6 0
-122 0 -122 -180 11 c-223 12 -224 6 -18 -175 191 -168 245 -188 216 -81 -44
159 -19 240 77 247 l85 6 0 -151 c0 -106 -7 -152 -25 -154 -123 -14 291 -30
570 -22 l355 11 0 55 c0 38 -12 58 -40 65 -31 8 -40 28 -42 87 0 42 -4 95 -8
116 -4 22 1 71 11 110 18 70 18 70 8 -14 l-9 -85 100 0 100 0 0 -190 c0 -223
2 -224 125 -75 52 63 176 196 275 294 211 210 212 215 75 210 -211 -8 -195
-24 -195 188 0 102 -5 192 -12 198 -6 7 -13 337 -15 734 l-3 722 -204 -3
c-216 -2 -256 7 -237 57 7 17 6 97 -1 178 l-14 147 -437 0 -437 0 0 -205z
m421 -104 c31 -54 53 -105 48 -112 -4 -8 49 -69 120 -136 l128 -123 151 0 c84
0 159 0 167 1 8 0 12 32 9 70 -4 45 3 70 20 71 32 3 178 2 206 0 16 -2 24
-186 13 -297 -2 -20 -176 -24 -828 -20 l-825 5 -3 205 c-4 242 -15 236 155 85
152 -136 359 -183 331 -77 -20 80 14 107 130 106 l107 -2 10 -78 c8 -63 19
-80 55 -85 42 -6 59 15 33 41 -20 20 -27 213 -8 225 10 6 -21 67 -68 136 -48
68 -97 147 -110 174 -39 82 92 -73 159 -189z m140 -36 c95 -186 101 -218 16
-84 -69 109 -177 317 -177 343 0 28 80 -99 161 -259z m126 -42 c41 -109 71
-201 67 -206 -12 -11 -188 389 -204 463 l-14 60 38 -60 c21 -33 72 -149 113
-257z m61 97 c26 -88 53 -184 60 -213 6 -29 17 -70 23 -90 6 -20 -2 -14 -18
14 -30 52 -153 444 -153 487 1 47 42 -45 88 -198z m-436 -53 c37 -51 68 -98
68 -105 0 -11 -182 190 -216 238 -8 11 -27 38 -43 60 -16 22 5 9 46 -30 42
-38 107 -112 145 -163z m-132 -27 c49 -49 79 -90 68 -90 -11 0 -59 41 -108 90
-49 50 -79 90 -68 90 11 0 59 -40 108 -90z m718 -230 c-3 -48 -55 124 -55 180
0 30 12 10 28 -50 16 -55 27 -113 27 -130z m-118 -348 c0 10 36 -22 80 -72 44
-49 74 -74 67 -54 -8 23 -3 34 14 30 14 -3 38 17 52 44 16 31 27 38 27 19 0
-40 77 -123 99 -109 10 5 21 -1 26 -15 7 -20 15 -20 40 1 21 17 36 19 44 5 8
-12 3 -21 -9 -21 -12 0 -17 -9 -10 -20 7 -11 0 -20 -15 -20 -30 0 -35 -22 -41
-190 -2 -72 4 -119 16 -117 11 2 42 -29 69 -70 29 -45 35 -62 14 -46 -38 32
-42 18 -12 -38 11 -22 16 -39 10 -39 -5 0 -24 28 -42 62 -56 109 -82 41 -39
-101 20 -67 31 -126 25 -132 -6 -6 -21 32 -34 85 -34 145 -63 176 -51 56 l9
-100 -19 90 c-21 95 -10 168 22 149 36 -22 41 48 7 100 -45 68 -48 63 -61
-111 -15 -191 -28 -203 -28 -26 0 94 10 154 31 184 17 24 22 44 11 44 -36 0
-52 -48 -64 -190 l-12 -140 -3 154 c-3 162 -26 204 -76 143 -16 -20 -23 -23
-16 -7 10 20 8 24 -6 10 -11 -11 -30 -51 -43 -90 -13 -38 -41 -92 -64 -120
-35 -43 -38 -44 -19 -6 27 56 27 72 -2 54 -15 -9 -18 -5 -9 9 8 13 21 20 29
15 8 -5 14 8 14 29 0 35 -3 35 -48 -7 l-49 -44 47 65 c25 36 59 65 75 65 17 0
24 12 17 30 -7 17 -1 28 13 25 13 -3 27 20 30 50 6 53 -8 64 -69 57 -14 -2
-19 13 -13 38 6 22 3 40 -7 40 -9 1 -51 9 -92 18 -44 11 -70 10 -64 0 6 -10
-14 -17 -45 -16 -36 2 -43 6 -20 12 36 9 36 10 0 38 -33 26 -32 28 19 16 42
-9 55 -5 55 20 0 18 -16 33 -35 34 -29 2 -29 4 4 13 36 9 35 11 -10 38 l-49
29 48 -13 c32 -9 43 -6 33 9 -16 27 127 -37 165 -73 41 -39 54 -30 17 12 -18
20 -26 44 -18 53 8 9 5 11 -7 4 -12 -7 -44 12 -70 41 -44 50 -45 52 -3 17 25
-21 45 -30 45 -20z m-910 -142 l0 -80 -90 0 -90 0 -6 86 -6 86 96 -6 96 -6 0
-80z m577 -60 c-5 -255 4 -233 -92 -226 l-85 6 -6 186 -6 186 96 -6 96 -6 -3
-140z m-567 -481 l0 -411 -95 6 -95 6 -5 405 -6 405 101 0 100 0 0 -411z m817
345 c-21 -38 -24 -39 -47 -8 -13 19 -46 34 -72 34 -31 1 -39 6 -23 16 56 36
166 3 142 -42z m14 -45 c-28 -21 -30 -29 -10 -29 24 -1 24 -4 2 -18 -21 -13
-21 -19 4 -28 18 -7 42 6 60 32 28 41 29 41 21 4 -6 -22 -43 -61 -84 -86 -57
-36 -64 -37 -29 -6 l46 39 -69 25 -69 25 64 34 c79 43 116 47 64 8z m-181
-112 c22 -18 66 -54 97 -81 l58 -48 -4 -257 -3 -257 83 12 c119 16 133 38 73
117 -41 54 -48 79 -35 127 32 125 45 145 111 165 l68 21 11 -103 c6 -57 14
-152 16 -213 4 -95 10 -110 45 -110 32 0 39 11 34 54 -8 66 35 90 144 83 99
-7 103 -15 95 -175 l-6 -132 -419 0 c-321 0 -418 6 -418 25 -1 19 -4 19 -15 2
-9 -14 -55 -22 -105 -20 l-90 3 -2 404 c-2 450 -12 421 142 418 43 -1 97 -17
120 -35z m402 -112 c4 -35 0 -45 -10 -28 -12 19 -20 12 -30 -27 -8 -30 -19
-50 -24 -44 -6 5 0 47 14 92 27 90 41 92 50 7z m564 -768 c5 -40 -4 -57 -36
-67 -75 -24 -129 53 -75 107 42 42 104 19 111 -40z m-1135 -76 c-53 -104 -101
-167 -101 -131 0 28 134 250 151 250 5 0 -17 -53 -50 -119z m-120 64 c-38 -66
-100 -135 -101 -112 0 23 95 147 112 147 5 0 0 -16 -11 -35z m391 -99 c-37
-69 -42 -20 -7 76 21 58 25 61 31 24 4 -24 -7 -69 -24 -100z m125 -29 c-18
-65 -27 -76 -32 -44 -4 24 4 83 18 130 18 65 27 76 32 44 4 -24 -4 -83 -18
-130z m379 -7 c-1 -76 -1 -77 -16 -20 -22 87 -22 219 0 150 9 -27 16 -86 16
-130z m121 63 c10 -52 11 -98 3 -103 -17 -10 -40 86 -40 166 0 74 17 45 37
-63z m-778 -55 c-61 -131 -71 -111 -16 34 24 65 48 106 53 91 5 -15 -12 -71
-37 -125z m-49 -195 l141 -2 -8 80 c-4 43 0 79 8 79 16 0 254 -220 266 -245
11 -25 -107 -17 -133 9 -18 18 -34 17 -71 -2 -34 -18 -111 -23 -275 -15 l-228
10 -6 127 -6 126 86 -83 c84 -80 90 -82 226 -84z"/>
<path d="M2940 4131 c-38 -46 -16 -101 40 -101 36 0 52 12 56 44 8 57 -61 98
-96 57z"/>
<path d="M3860 4110 c-22 -27 -21 -37 7 -66 41 -40 103 -12 103 48 0 49 -74
61 -110 18z"/>
<path d="M3411 3737 c5 -26 18 -50 29 -54 11 -3 15 -15 9 -25 -6 -10 5 -19 25
-19 20 -1 56 -6 80 -10 66 -13 74 24 11 56 -30 15 -79 43 -109 63 -54 35 -54
35 -45 -11z"/>
<path d="M3060 3280 c0 -33 10 -41 45 -36 25 3 45 20 45 36 0 17 -20 33 -45
36 -35 5 -45 -3 -45 -36z"/>
<path d="M3284 3196 c-36 -36 -29 -76 15 -76 52 0 72 38 38 72 -23 22 -34 23
-53 4z"/>
<path d="M3913 2767 c-25 -26 -13 -83 21 -96 47 -18 95 45 63 82 -24 29 -62
35 -84 14z"/>
<path d="M3814 4765 c-21 -38 12 -165 43 -166 18 -1 58 -5 88 -9 77 -10 69 23
-28 113 -91 84 -91 84 -103 62z"/>
<path d="M2434 4664 c-94 -96 -93 -104 16 -104 l90 0 0 90 c0 110 -11 111
-106 14z"/>
<path d="M4277 4330 c-13 -13 -2 -1487 12 -1542 22 -89 287 -64 384 35 41 42
70 79 66 83 -5 4 -28 20 -51 36 -150 100 -233 204 -257 321 -30 146 -14 149
120 22 55 -52 146 -133 201 -179 l101 -84 196 197 195 196 -175 168 c-97 92
-204 193 -237 224 -34 32 -171 164 -304 295 -133 131 -246 234 -251 228z m223
-380 c0 -5 -36 -28 -80 -50 -96 -49 -106 -35 -15 20 64 39 95 49 95 30z m60
-68 c-38 -20 -92 -44 -120 -52 -81 -24 -19 28 72 61 109 38 131 34 48 -9z
m100 -51 c0 -8 -71 -31 -270 -85 -77 -21 -15 15 92 54 105 37 178 50 178 31z
m-40 -113 c-82 -21 -177 -36 -210 -33 -82 8 168 70 280 70 69 1 58 -5 -70 -37z
m219 -58 c-18 -10 -139 -22 -270 -27 l-239 -10 160 26 c195 32 394 38 349 11z
m-6 -103 c-79 -10 -215 -10 -320 0 -177 17 -172 18 137 18 274 0 300 -3 183
-18z m-203 -57 c331 -27 422 -42 386 -62 -29 -16 -475 28 -613 61 -100 23 -53
24 227 1z m0 -91 c55 -7 161 -25 236 -41 75 -15 142 -28 149 -28 7 0 4 -8 -6
-19 -21 -20 -334 36 -489 88 -49 17 -67 26 -40 22 28 -5 95 -15 150 -22z m94
-117 c180 -48 308 -109 151 -73 -90 22 -275 84 -275 93 0 12 9 10 124 -20z
m-215 -469 c-13 -14 -169 139 -169 165 0 11 40 -19 90 -68 49 -48 85 -92 79
-97z"/>
<path d="M2010 4235 c-41 -47 -251 -263 -467 -480 l-393 -396 187 -180 186
-181 85 76 c359 320 352 317 352 188 0 -97 -2 -101 -150 -237 -178 -164 -173
-141 -55 -254 l95 -91 140 5 140 5 -3 590 c-6 1192 6 1095 -117 955z m19 -477
c28 -11 4 -16 -79 -14 -138 3 -190 14 -190 38 0 20 209 2 269 -24z m-120 -59
c-6 -11 -23 -19 -38 -19 -15 0 -32 -13 -37 -28 -13 -33 39 -50 166 -54 81 -3
74 -6 -70 -33 -118 -23 -150 -35 -120 -47 38 -14 38 -15 2 -17 -21 0 -33 -7
-26 -14 8 -7 -2 -25 -21 -39 -41 -31 -30 -34 155 -32 103 1 100 -1 -50 -23
-88 -12 -179 -34 -202 -47 -58 -33 -76 -9 -33 42 35 42 35 42 -8 5 -24 -20
-60 -39 -80 -43 -20 -4 -40 -8 -43 -8 -4 -1 -1 -11 6 -22 8 -13 25 -13 48 -1
26 14 35 11 35 -9 0 -16 -6 -24 -15 -19 -8 5 -18 0 -22 -12 -4 -12 -32 1 -63
30 -73 68 -59 102 39 98 43 -2 58 1 33 6 -53 11 -60 46 -10 49 33 3 33 3 0 12
-45 12 -25 46 26 46 22 0 39 9 39 20 0 11 -22 20 -50 20 -27 0 -50 9 -50 20 0
11 27 20 60 20 40 0 60 -10 60 -30 0 -16 8 -30 19 -30 10 0 15 18 11 41 -6 28
7 48 41 63 27 12 49 31 49 40 0 10 7 14 16 9 9 -6 26 -4 39 4 35 22 107 23 94
2z"/>
<path d="M2459 2569 c-42 -51 27 -111 74 -64 33 32 11 95 -33 95 -8 0 -27 -14
-41 -31z"/>
<path d="M3685 2215 c13 -38 75 -43 75 -6 0 18 -17 31 -42 31 -24 0 -38 -10
-33 -25z"/>
<path d="M2680 2091 c0 -41 41 -61 61 -30 9 15 12 34 7 43 -17 27 -68 18 -68
-13z"/>
<path d="M2701 1870 c1 -11 39 -50 85 -86 46 -37 175 -156 285 -265 l201 -199
245 269 c135 148 242 274 239 281 -11 21 -1056 21 -1055 0z m479 -130 c0 -33
-9 -60 -21 -60 -27 0 -46 53 -32 90 20 52 53 33 53 -30z m228 12 c6 -22 0 -48
-14 -56 -33 -21 -54 -20 -54 3 0 11 -13 15 -30 8 -17 -6 -30 0 -31 16 0 18 -7
15 -21 -8 -30 -52 -53 -42 -50 21 3 74 181 88 200 16z m-12 -147 c3 -22 -8
-45 -25 -52 -20 -8 -31 0 -31 21 0 29 -4 28 -31 -5 -30 -38 -31 -38 -19 6 8
26 4 45 -9 45 -11 0 -21 -13 -21 -30 0 -36 -23 -39 -56 -6 -37 37 -29 53 31
61 107 14 155 2 161 -40z"/>
</g>
</svg>
