<?xml version="1.0" standalone="no"?>
<!DOCTYPE svg PUBLIC "-//W3C//DTD SVG 20010904//EN"
 "http://www.w3.org/TR/2001/REC-SVG-20010904/DTD/svg10.dtd">
<svg version="1.0" xmlns="http://www.w3.org/2000/svg"
 width="300.000000pt" height="485.000000pt" viewBox="0 0 300.000000 485.000000"
 preserveAspectRatio="xMidYMid meet">
<metadata>
Created by potrace 1.10, written by Peter Selinger 2001-2011
</metadata>
<g transform="translate(0.000000,485.000000) scale(0.100000,-0.100000)"
fill="#000000" stroke="none">
<path d="M1478 3506 c-54 -56 -98 -105 -98 -108 0 -4 164 -4 193 1 4 0 2 10
-5 20 -8 13 -22 19 -44 18 -18 -1 -31 -5 -28 -9 3 -4 1 -8 -5 -8 -6 0 -15 10
-22 22 -10 18 -9 20 4 15 10 -4 18 1 22 14 4 10 13 19 21 19 8 0 14 9 14 21 0
11 5 17 10 14 6 -4 19 4 30 17 11 13 19 19 20 14 0 -5 6 -3 14 3 11 10 16 8
20 -7 3 -10 22 -35 41 -56 40 -44 44 -56 15 -49 -15 4 -20 0 -20 -13 -1 -17
-2 -17 -13 -4 -7 8 -25 15 -40 15 -22 1 -27 -3 -25 -20 3 -19 11 -20 118 -23
l115 -2 -106 105 c-58 58 -112 104 -120 104 -8 -1 -58 -47 -111 -103z"/>
<path d="M1375 3302 c-6 -6 -7 -192 -1 -192 2 0 12 -3 20 -6 12 -5 15 -2 10
10 -7 19 6 21 26 4 8 -7 5 -2 -6 12 -34 40 -40 54 -21 47 18 -7 24 8 7 18 -7
4 -7 12 0 25 7 13 7 21 0 25 -22 14 -8 24 30 22 29 -2 40 1 40 12 0 12 3 12
18 -1 21 -19 52 -19 52 -1 0 20 16 16 34 -9 9 -13 14 -17 11 -10 -13 26 16 10
36 -20 12 -18 18 -24 14 -13 -4 11 -10 31 -12 45 -4 21 -3 22 7 8 6 -11 17
-15 28 -11 15 6 16 5 2 -13 -14 -18 -14 -18 3 -5 9 7 17 21 17 30 1 13 3 13
15 -3 8 -11 15 -16 15 -10 0 5 10 -2 21 -16 l21 -25 -6 35 c-5 24 -3 31 4 24
11 -11 70 -295 63 -304 -9 -10 -20 25 -37 115 -10 52 -22 92 -27 89 -5 -3 -9
0 -9 5 0 6 5 11 10 11 6 0 10 5 10 12 0 9 -5 8 -15 -2 -15 -16 -14 -27 23
-157 27 -93 11 -96 -19 -3 -21 69 -43 110 -52 100 -3 -3 9 -38 25 -78 33 -84
32 -123 -2 -47 -12 28 -31 70 -42 94 -13 28 -23 40 -29 34 -7 -7 -2 -24 13
-49 27 -46 49 -106 36 -98 -5 3 -23 30 -39 60 -17 30 -35 54 -40 54 -5 0 -8 5
-6 11 1 6 -6 13 -15 14 -10 2 -18 -1 -18 -6 0 -5 4 -9 9 -9 5 0 11 -10 14 -21
5 -19 2 -18 -24 7 -22 21 -28 24 -23 10 5 -14 4 -17 -5 -11 -10 6 -11 3 -1
-15 17 -31 8 -34 -36 -9 -22 11 -30 14 -20 5 11 -9 16 -16 11 -16 -5 0 2 -11
15 -25 14 -14 23 -38 24 -57 1 -27 6 -34 25 -36 17 -3 21 0 15 9 -4 7 -9 39
-11 71 l-3 58 23 -15 c12 -8 40 -33 62 -56 56 -57 70 -63 158 -64 l78 -2 -6
38 c-4 24 -3 39 3 39 6 0 13 15 15 33 l4 32 1 -32 c2 -29 5 -31 35 -31 65 1
63 4 64 -77 1 -46 -3 -78 -10 -82 -9 -5 -375 -7 -769 -4 l-56 1 -1 105 c0 122
-4 121 92 32 55 -51 62 -54 105 -53 46 1 47 2 47 33 0 41 8 47 58 45 l42 -2
-29 24 c-30 25 -56 25 -56 0 0 -11 -4 -12 -19 -5 -10 6 -21 8 -24 5 -3 -3 -8
4 -12 15 -6 20 -17 24 -70 24 -14 0 -54 -1 -90 -1 l-65 -2 0 -124 0 -124 46
-7 c71 -10 101 -27 39 -21 -27 3 -58 8 -67 11 -17 7 -18 -13 -18 -329 l0 -336
-65 0 c-52 0 -65 -3 -65 -15 0 -13 13 -16 80 -14 l80 3 0 63 0 63 98 0 99 0
-5 83 c-2 45 -6 84 -8 86 -3 3 -10 -1 -16 -7 -17 -17 -33 -15 -18 3 7 8 18 15
26 15 13 0 22 156 16 286 l-3 62 -39 6 c-30 5 -38 10 -33 21 3 10 9 12 17 7
16 -13 110 -34 132 -30 18 3 19 -10 22 -304 l2 -307 -21 -3 c-28 -4 -55 -43
-38 -54 8 -5 9 -3 4 6 -6 10 -3 12 13 8 13 -4 31 1 43 11 19 15 20 26 20 229
l-1 212 58 0 c32 0 62 -4 67 -9 6 -5 22 0 40 11 27 18 28 19 5 12 -14 -4 -31
-9 -37 -11 -7 -3 -13 -2 -13 1 0 4 13 12 30 17 16 6 28 15 25 19 -3 5 1 10 7
13 7 2 -9 2 -37 -1 -57 -5 -57 3 1 17 l39 10 -39 -2 c-33 -3 -36 -2 -20 10 17
12 17 13 -2 15 -10 0 4 4 31 8 46 6 47 7 13 8 -25 1 -38 7 -38 16 0 8 -6 17
-12 19 -7 3 -4 6 7 6 17 1 18 3 5 12 -11 8 -7 9 20 5 30 -4 26 -1 -25 23 -33
15 -72 30 -85 34 -14 3 -34 13 -45 21 -11 9 15 2 58 -14 95 -36 104 -37 52 -5
-22 14 -33 25 -25 25 8 0 30 -9 48 -20 41 -25 54 -25 23 0 -31 26 -15 25 29
-1 32 -19 33 -20 18 -2 -17 18 -16 19 16 18 19 0 38 -4 43 -9 5 -5 2 -6 -6 -1
-9 5 -12 4 -8 -3 7 -11 24 -11 42 -1 6 4 25 7 43 7 26 1 32 -3 33 -21 1 -17 3
-15 9 8 7 29 8 30 9 4 0 -15 7 -39 15 -54 14 -26 15 -26 25 -7 8 15 8 23 -1
28 -7 4 -8 3 -4 -4 4 -7 3 -12 -2 -12 -6 0 -13 7 -16 16 -7 18 -7 65 0 48 3
-7 14 -10 25 -7 15 4 18 2 13 -13 -6 -17 -5 -17 9 1 9 11 17 16 17 11 0 -5 6
-3 14 3 31 26 23 -9 -11 -50 -21 -25 -26 -35 -12 -23 34 30 58 37 54 16 -2 -9
-4 -19 -5 -22 -1 -3 -2 -9 -1 -14 1 -5 -3 -12 -10 -16 -8 -5 -4 -10 10 -15 13
-4 24 -5 26 -3 4 4 9 272 7 343 l-2 50 -75 -3 -74 -4 -4 -66 -3 -67 -2 73 c-1
53 -6 72 -16 72 -10 0 -12 -15 -8 -72 5 -86 -5 -88 -14 -2 -4 32 -11 64 -16
71 -5 7 -7 17 -3 23 3 6 3 46 -1 89 l-6 79 -214 0 c-117 -1 -216 -3 -219 -6z
m18 -259 l14 -32 -43 3 c-54 5 -64 11 -62 40 2 21 7 24 39 22 31 -1 39 -6 52
-33z m82 -214 c28 -11 64 -19 81 -19 17 0 37 -7 44 -15 7 -8 8 -15 3 -15 -6 0
-9 -33 -8 -80 l3 -80 -49 0 -48 0 -3 97 -3 98 -63 16 c-34 9 -66 20 -70 24
-10 11 55 -4 113 -26z m-167 -67 l3 -42 -50 0 -51 0 0 44 0 43 48 -1 47 -2 3
-42z m35 -60 c-25 -2 -33 -8 -33 -23 0 -14 7 -19 26 -19 14 0 23 -4 20 -9 -3
-5 -15 -7 -26 -4 -19 5 -20 0 -20 -176 l0 -181 -50 0 -50 0 0 205 0 205 43 1
c23 0 51 4 62 8 11 4 29 5 40 2 15 -5 13 -7 -12 -9z"/>
<path d="M1910 3261 c0 -26 5 -41 16 -45 23 -9 74 -7 74 2 0 8 -77 82 -86 82
-2 0 -4 -18 -4 -39z"/>
<path d="M1218 3248 c-21 -23 -38 -43 -38 -45 0 -2 20 -3 45 -3 l45 0 0 45 c0
25 -3 45 -7 44 -5 0 -25 -19 -45 -41z"/>
<path d="M997 3022 c-27 -33 -131 -142 -233 -243 l-185 -184 90 -88 c91 -87
91 -87 116 -71 14 9 29 22 33 28 4 6 34 34 67 61 33 28 64 56 68 63 12 18 40
15 33 -4 -3 -9 -6 -32 -7 -52 0 -33 -8 -44 -74 -102 -41 -36 -75 -69 -75 -75
0 -5 24 -31 53 -56 l52 -45 66 4 65 4 -2 292 c-1 160 -3 314 -3 342 l-1 51
-40 7 c-22 3 -40 11 -40 17 0 7 8 9 20 5 11 -3 29 -9 40 -12 18 -6 20 -2 20
55 0 33 -3 61 -7 61 -5 0 -30 -26 -56 -58z m23 -113 c0 -21 5 -29 18 -29 15
-1 15 -2 2 -13 -8 -7 -15 -23 -15 -37 0 -14 7 -30 15 -37 13 -11 13 -12 -1
-13 -22 0 -20 -50 1 -67 13 -11 13 -12 -3 -13 -14 0 -16 -5 -11 -27 4 -16 11
-29 16 -31 14 -6 9 -22 -6 -22 -10 0 -13 -7 -11 -21 3 -13 0 -19 -8 -16 -7 3
-11 9 -10 14 1 5 -16 10 -39 12 -36 2 -46 -3 -92 -46 -83 -77 -96 -85 -120
-79 -24 7 -111 85 -118 107 -3 8 30 48 81 99 47 47 93 94 102 105 9 11 32 33
52 50 20 16 37 35 37 41 0 6 10 16 23 23 12 6 33 18 46 26 31 17 41 11 41 -26z
m-3 -431 c-7 -5 -2 -8 13 -8 21 -1 23 -2 10 -13 -17 -14 -15 -77 2 -77 6 0 5
-7 -3 -17 -8 -9 -13 -24 -11 -35 2 -10 -2 -18 -8 -18 -6 0 -8 -4 -5 -10 4 -6
-9 -10 -32 -10 -26 1 -47 8 -65 25 -43 37 -40 44 45 122 20 18 38 42 42 54 6
17 9 18 16 8 5 -8 3 -16 -4 -21z"/>
<path d="M2130 3056 c0 -14 5 -28 10 -31 6 -4 7 -12 3 -18 -8 -13 -12 -87 -5
-87 2 0 20 14 39 30 18 17 39 30 46 30 12 -1 -28 -38 -75 -71 -13 -10 -20 -20
-16 -24 3 -3 30 10 58 29 29 20 57 36 62 36 19 0 -13 -29 -65 -59 l-50 -29 -1
-66 c-1 -38 3 -66 9 -66 6 0 39 7 75 14 36 7 70 11 77 9 7 -3 13 0 13 7 0 9
-10 10 -32 6 -58 -12 -133 -19 -126 -12 3 4 28 14 55 22 l48 14 -55 -5 -55 -5
37 18 c51 25 58 33 18 22 -19 -5 -35 -8 -37 -6 -11 11 113 66 148 66 17 0 18
-3 9 -20 -10 -18 -8 -19 22 -14 30 5 31 4 16 -9 -21 -17 -14 -27 18 -27 13 0
26 -4 29 -10 3 -5 -1 -10 -9 -10 -32 0 -3 -29 32 -32 36 -4 37 -4 12 -15 -24
-11 -24 -12 -2 -12 12 -1 22 -5 22 -10 0 -5 10 -11 23 -13 12 -2 22 -9 22 -16
0 -8 8 -19 17 -26 10 -7 15 -16 11 -19 -3 -4 6 -7 20 -7 15 0 27 -4 27 -10 0
-5 -6 -10 -13 -10 -8 0 -22 -9 -32 -20 -11 -12 -13 -20 -6 -20 7 0 9 -5 6 -11
-4 -5 -12 -8 -18 -6 -16 5 -37 -17 -37 -38 0 -13 -6 -16 -26 -11 -16 4 -23 3
-20 -3 4 -5 2 -12 -4 -16 -6 -4 -8 -11 -5 -16 9 -13 -6 -10 -35 7 l-25 15 28
-6 c23 -5 27 -2 25 12 -2 12 -24 25 -63 39 -33 12 -68 25 -77 29 -33 13 -18
-11 25 -42 23 -17 58 -47 77 -67 19 -19 38 -36 41 -36 8 0 183 178 188 192 2
6 -45 58 -105 115 -60 58 -165 158 -232 224 -68 65 -128 119 -133 119 -5 0 -9
-11 -9 -24z m160 -142 c0 -7 -32 -40 -37 -37 -1 1 -23 -7 -49 -18 -55 -25 -70
-18 -23 10 19 11 39 24 45 29 10 9 33 17 57 21 4 0 7 -2 7 -5z"/>
<path d="M1464 2975 c-9 -23 3 -45 26 -45 25 0 37 25 20 45 -16 19 -39 19 -46
0z"/>
<path d="M1931 2976 c-16 -20 -3 -46 24 -46 13 0 26 7 29 16 7 19 -10 44 -29
44 -7 0 -18 -6 -24 -14z"/>
<path d="M1703 2800 c4 -26 48 -63 79 -66 17 -2 27 0 23 6 -3 6 -12 10 -19 10
-8 0 -19 7 -26 15 -7 9 -15 13 -18 11 -2 -3 -13 5 -23 17 -12 15 -17 17 -16 7z"/>
<path d="M2203 2722 c-70 -3 -66 3 -64 -97 0 -22 1 -85 2 -139 l1 -100 42 -48
c35 -41 46 -48 76 -48 29 0 44 8 75 40 21 22 35 40 30 40 -6 0 -40 29 -77 64
-53 49 -68 69 -69 92 -1 45 -12 65 -45 79 -24 11 -26 14 -8 14 12 1 38 -6 57
-14 20 -8 53 -18 74 -21 21 -3 42 -8 47 -12 5 -3 6 0 2 6 -4 7 -3 12 3 12 5 0
14 -7 19 -16 9 -16 32 -12 32 5 0 5 -50 18 -110 29 -112 22 -169 41 -123 42
12 0 44 -4 70 -9 88 -17 135 -22 129 -12 -3 5 -51 14 -106 21 -55 7 -100 17
-100 22 0 11 33 10 126 -3 53 -7 84 -7 98 0 12 5 30 12 41 14 11 3 -44 5 -122
6 -88 1 -143 5 -143 11 0 6 45 10 115 10 75 0 115 4 115 11 0 6 -23 9 -62 7
-35 -2 -91 -4 -125 -6z m-1 -233 l33 -31 -33 19 c-38 21 -61 43 -43 43 6 0 25
-14 43 -31z m63 -93 c31 -26 54 -50 52 -53 -11 -10 -76 36 -122 86 -44 48 -46
52 -18 35 18 -11 57 -41 88 -68z m-90 24 c4 -6 11 -7 17 -4 6 4 8 3 5 -3 -3
-5 12 -27 33 -48 38 -37 49 -55 32 -55 -10 0 -91 80 -103 102 -10 19 4 27 16
8z"/>
<path d="M1975 2706 l30 -16 -35 6 c-31 4 -33 3 -18 -9 10 -8 16 -17 13 -21
-3 -3 1 -2 7 4 13 11 35 14 25 3 -4 -3 1 -12 11 -19 12 -10 13 -13 3 -14 -7 0
-11 -6 -8 -14 3 -7 1 -18 -5 -24 -6 -6 -6 -12 3 -17 8 -6 10 -4 4 6 -5 8 -4
10 0 6 12 -10 15 -38 4 -31 -13 8 -11 -10 4 -26 6 -8 2 -6 -11 5 -22 18 -23
18 -16 0 5 -13 4 -16 -5 -11 -7 5 2 -20 19 -54 17 -34 26 -59 20 -55 -6 3 -26
38 -46 76 -19 38 -39 67 -44 64 -6 -3 -10 -8 -10 -11 0 -3 5 -2 12 2 8 5 9 2
5 -10 -4 -11 -3 -15 4 -10 7 4 9 0 5 -14 -4 -11 2 -44 14 -73 11 -30 20 -63
20 -74 0 -34 -17 -2 -35 68 -10 37 -19 66 -21 64 -2 -1 4 -40 13 -85 l16 -82
39 3 c42 4 40 10 40 -92 l0 -63 -208 0 c-137 1 -209 5 -214 12 -6 10 -30 -29
-30 -49 0 -12 36 -7 53 7 12 10 16 9 21 -3 7 -20 28 -15 43 10 10 16 12 17 13
4 0 -9 7 -20 16 -23 22 -9 24 -8 24 9 0 8 5 15 11 15 7 0 9 -13 5 -37 -3 -21
-3 -31 1 -23 3 8 17 26 31 40 l25 25 -5 -52 c-5 -50 -4 -53 18 -53 21 0 24 5
23 33 0 17 -3 26 -6 19 -6 -16 -23 -6 -23 14 0 8 5 12 10 9 6 -3 13 1 16 9 8
21 24 21 24 0 0 -8 4 -13 9 -9 6 3 15 -3 21 -12 9 -15 10 -13 5 10 -4 21 -2
28 7 25 7 -3 16 -27 19 -54 4 -36 6 -40 7 -16 1 17 7 32 12 32 6 0 10 9 10 20
0 11 4 20 9 20 13 0 24 -31 23 -60 -1 -21 0 -22 6 -7 7 16 10 17 20 4 7 -8 9
-22 6 -32 -5 -13 -9 -14 -16 -3 -7 9 -8 5 -5 -14 2 -15 0 -33 -4 -40 -7 -10
-9 -8 -9 6 0 16 -2 16 -20 -5 -16 -20 -19 -21 -20 -7 0 9 -4 20 -10 23 -6 4
-8 -12 -5 -42 4 -44 4 -45 -5 -13 -5 19 -12 56 -15 83 -3 26 -11 45 -16 42 -5
-4 -12 2 -16 11 -6 16 -7 16 -14 -2 -13 -32 -10 -44 11 -44 19 0 20 -7 20 -96
l0 -96 45 46 c25 26 45 48 45 50 0 2 43 49 96 104 53 55 94 103 93 108 -2 4
-34 6 -71 5 l-68 -2 0 95 c0 56 -4 98 -11 101 -6 4 -7 19 -4 36 4 19 2 36 -7
46 -8 11 -9 14 -1 10 9 -6 12 21 12 113 -1 90 -4 120 -14 120 -7 0 -28 2 -46
5 l-34 6 30 -15z m15 -262 c17 -42 29 -78 26 -82 -6 -6 -51 92 -62 133 -12 48
4 25 36 -51z m118 -273 c8 -4 12 -19 10 -32 -2 -19 -9 -24 -31 -24 -25 1 -28
-2 -22 -25 5 -23 4 -23 -8 -7 -17 21 -11 67 11 85 19 14 23 15 40 3z"/>
<path d="M1678 2597 c-35 -14 -35 -18 2 -50 34 -31 45 -34 36 -11 -3 8 -2 13
3 10 4 -3 16 3 26 14 10 11 15 20 10 20 -4 0 -1 8 6 18 13 15 12 16 -3 3 -10
-7 -16 -17 -13 -21 3 -4 -2 -13 -11 -20 -13 -12 -14 -10 -10 13 3 20 1 25 -11
20 -11 -4 -14 -2 -9 5 4 7 6 12 4 11 -2 -1 -15 -6 -30 -12z"/>
<path d="M1533 2564 c-9 -23 13 -40 32 -24 12 10 13 16 4 26 -15 18 -28 18
-36 -2z"/>
<path d="M1738 2533 c-24 -27 -25 -34 -26 -145 l0 -118 32 0 c18 0 40 6 49 13
14 11 14 15 -8 42 l-25 30 0 -27 c0 -15 -4 -30 -10 -33 -15 -9 -13 1 20 104
17 52 28 96 26 98 -2 2 -16 -25 -32 -61 -15 -36 -30 -64 -32 -62 -8 8 62 154
71 149 6 -3 7 -1 3 5 -11 18 -13 16 -42 -38 -33 -61 -44 -59 -14 2 21 42 21
43 0 19 -24 -27 -27 -15 -4 17 8 12 20 19 26 16 7 -4 8 -2 4 4 -9 16 -8 16
-38 -15z"/>
<path d="M1866 2475 c8 -154 16 -205 32 -205 15 0 16 -6 -8 185 -6 47 -8 53
-10 25 -3 -32 -4 -31 -11 15 -6 43 -7 41 -3 -20z"/>
<path d="M1634 2509 c-3 -6 0 -17 8 -25 13 -13 16 -13 27 0 7 8 10 20 6 26 -8
13 -32 13 -41 -1z"/>
<path d="M1811 2490 c-6 -18 -6 -30 0 -30 5 0 9 10 10 23 0 20 1 20 8 3 5 -14
10 -16 15 -8 4 7 1 19 -7 27 -13 13 -16 11 -26 -15z"/>
<path d="M1913 2398 c0 -41 4 -58 14 -58 7 0 13 1 13 3 -1 1 -7 27 -14 57
l-14 55 1 -57z"/>
<path d="M2140 2344 c0 -41 13 -56 43 -52 l25 3 -34 39 -34 39 0 -29z"/>
<path d="M1960 2295 c-16 -19 -5 -47 17 -43 11 2 18 12 18 27 0 29 -17 37 -35
16z"/>
<path d="M1227 2196 c-3 -8 1 -20 9 -27 12 -10 18 -9 31 3 8 9 12 21 9 27 -10
16 -43 14 -49 -3z"/>
<path d="M1310 2130 l0 -60 -90 0 c-49 0 -90 -3 -89 -7 1 -12 169 -158 186
-161 12 -3 13 0 4 16 -6 12 -11 46 -11 77 0 46 5 63 25 87 17 19 23 37 20 49
-4 11 -2 19 5 19 6 0 8 -5 4 -12 -4 -7 7 -2 24 10 50 36 48 42 -17 42 l-61 0
0 -60z m-32 -108 c12 -8 7 -42 -7 -42 -11 0 -40 38 -34 44 9 8 26 7 41 -2z"/>
<path d="M1517 2183 c-12 -12 -7 -31 9 -37 17 -6 54 19 54 36 0 10 -54 11 -63
1z"/>
<path d="M1363 2093 c-32 -21 -29 -33 8 -33 l31 0 -3 -79 -4 -78 225 3 225 3
3 30 c3 26 0 31 -17 31 -16 0 -21 6 -21 29 0 51 -12 91 -27 91 -9 0 -13 -6 -9
-15 3 -8 1 -25 -4 -37 -9 -23 -9 -23 -10 2 l-2 25 -11 -27 c-14 -36 -27 -36
-27 1 0 36 -17 49 -36 29 -17 -16 -4 -33 75 -100 l45 -38 -40 0 c-22 0 -45 5
-51 11 -8 8 -13 8 -17 0 -5 -7 -54 -11 -137 -11 l-129 0 -2 58 c-1 31 -2 65
-1 75 0 16 -10 21 -30 18 -5 -1 -6 3 -3 8 11 17 -8 19 -31 4z"/>
<path d="M1645 2070 c-3 -11 -11 -20 -16 -20 -5 0 -9 -6 -9 -12 0 -17 -48 -39
-56 -27 -3 5 -13 8 -22 7 -11 -2 -16 3 -14 12 3 12 1 13 -9 3 -19 -19 -32 -16
-26 7 3 11 2 18 -3 15 -4 -3 -13 2 -20 10 -12 14 -30 12 -30 -3 0 -4 15 -24
33 -44 32 -38 34 -38 107 -38 l75 0 1 55 c1 60 -1 66 -11 35z"/>
<path d="M1844 2029 c-3 -6 -2 -15 4 -21 13 -13 32 -2 32 18 0 16 -26 19 -36
3z"/>
<path d="M1340 2016 c0 -8 4 -17 9 -20 11 -7 33 18 24 27 -12 12 -33 7 -33 -7z"/>
<path d="M1340 1960 c0 -11 7 -20 15 -20 8 0 15 9 15 20 0 11 -7 20 -15 20 -8
0 -15 -9 -15 -20z"/>
<path d="M1350 1849 c0 -5 4 -9 8 -9 4 0 68 -59 142 -130 l135 -131 35 40 c20
21 77 84 128 139 l92 100 -270 0 c-162 1 -270 -3 -270 -9z m433 -46 c-3 -18
-11 -33 -18 -33 -7 0 -15 -7 -19 -15 -11 -29 -23 -15 -22 25 1 34 4 40 23 40
12 0 25 5 28 11 11 16 13 7 8 -28z m-255 17 c13 0 17 -9 17 -42 0 -33 -4 -42
-15 -40 -14 3 -80 66 -80 76 0 7 33 14 48 10 8 -2 21 -4 30 -4z m132 -5 c41 0
45 -3 45 -25 0 -21 -5 -25 -32 -25 -17 -1 -29 3 -27 7 9 14 -13 9 -25 -5 -6
-8 -21 -13 -33 -12 -30 2 -40 61 -11 67 10 3 23 2 28 -1 6 -3 30 -6 55 -6z
m-77 -97 c7 -25 0 -41 -14 -33 -12 8 -12 55 0 55 5 0 11 -10 14 -22z m120 3
c5 -22 0 -31 -20 -31 -7 0 -13 8 -14 18 0 13 -2 12 -9 -5 -13 -32 -23 -29 -16
5 l6 27 -16 -22 c-19 -27 -30 -29 -38 -7 -10 26 3 34 53 34 40 0 50 -4 54 -19z
m-60 -53 c21 -11 21 -11 2 -18 -18 -7 -34 4 -35 23 0 10 8 9 33 -5z"/>
</g>
</svg>
