<?xml version="1.0" standalone="no"?>
<!DOCTYPE svg PUBLIC "-//W3C//DTD SVG 20010904//EN"
 "http://www.w3.org/TR/2001/REC-SVG-20010904/DTD/svg10.dtd">
<svg version="1.0" xmlns="http://www.w3.org/2000/svg"
 width="300.000000pt" height="472.000000pt" viewBox="0 0 300.000000 472.000000"
 preserveAspectRatio="xMidYMid meet">
<metadata>
Created by potrace 1.10, written by Peter Selinger 2001-2011
</metadata>
<g transform="translate(0.000000,472.000000) scale(0.050000,-0.050000)"
fill="#000000" stroke="none">
<path d="M4427 9426 c10 -18 -5 -23 -56 -19 -39 3 -82 -2 -96 -10 -14 -9 29
-17 99 -17 72 0 130 10 138 23 9 15 5 18 -10 8 -13 -8 -39 -2 -57 12 -21 18
-28 19 -18 3z"/>
<path d="M4629 9422 c13 -21 9 -26 -14 -17 -18 7 -41 2 -52 -12 -15 -18 -1
-22 59 -16 44 4 77 9 74 11 -3 2 -23 17 -45 33 -32 24 -36 24 -22 1z"/>
<path d="M5760 9426 c0 -13 -20 -27 -45 -31 -25 -4 31 -9 124 -11 92 -3 162 1
155 8 -7 7 -55 12 -107 11 -55 -1 -102 9 -111 23 -11 18 -15 18 -16 0z"/>
<path d="M5480 9400 c-12 -7 25 -15 83 -17 58 -2 100 0 95 6 -17 17 -154 26
-178 11z"/>
<path d="M2964 6834 c-112 -112 -209 -210 -216 -218 -12 -13 854 -1 867 12 6
7 -386 375 -423 396 -14 8 -104 -67 -228 -190z"/>
<path d="M2740 6240 l0 -200 -210 0 -210 0 -5 -905 -5 -905 -80 -2 c-150 -3
-170 -8 -170 -38 0 -33 106 -40 245 -17 l75 12 0 119 0 119 85 -3 c47 -2 135
-3 195 -2 l111 2 -4 455 c-3 250 -5 479 -6 508 -1 40 -15 59 -56 73 -41 14
-19 16 85 9 77 -6 144 -14 148 -18 37 -32 9 -1187 -28 -1189 -22 0 -96 0 -164
2 l-124 3 -6 -117 -6 -116 -175 3 c-213 4 -213 5 -13 -176 177 -161 253 -198
218 -107 -60 159 -18 286 92 274 l72 -9 -7 -157 -7 -158 450 5 450 5 0 60 c0
40 -10 60 -30 60 -39 0 -66 205 -40 306 l19 74 -9 -84 -10 -84 103 -6 103 -6
-4 -190 -4 -190 286 298 c157 164 289 305 292 313 4 9 -62 11 -145 5 l-151
-12 0 190 c0 104 -5 195 -12 201 -6 6 -13 327 -15 713 l-3 701 -220 5 -220 6
-1 90 c0 50 -2 133 -5 185 l-4 95 -440 0 -440 0 0 -200z m658 -121 c104 -247
116 -281 84 -248 -22 23 -180 375 -203 454 -37 125 23 20 119 -206z m-279 82
c101 -150 106 -161 85 -161 -16 0 -78 85 -195 270 -71 111 27 14 110 -109z
m172 -90 c51 -99 74 -159 52 -131 -47 57 -203 346 -202 372 1 33 58 -59 150
-241z m222 -40 c67 -222 81 -287 49 -231 -22 38 -135 390 -151 470 -24 123 34
-13 102 -239z m-432 -9 l63 -92 -107 113 c-157 166 -235 277 -112 159 51 -48
121 -129 156 -180z m531 -69 c16 -76 26 -141 21 -146 -11 -11 -68 237 -81 353
l-10 90 19 -80 c11 -44 34 -142 51 -217z m-622 7 l37 -50 -48 39 c-101 82
-159 139 -159 157 0 23 121 -81 170 -146z m269 -42 c180 -180 204 -192 374
-188 l157 3 0 68 0 69 118 0 119 0 4 -133 c2 -74 -3 -144 -10 -156 -10 -15
-258 -20 -832 -16 l-819 5 -3 195 c-3 230 -11 226 157 77 125 -111 139 -118
230 -115 101 3 96 -2 104 116 1 25 26 35 104 40 112 8 131 -5 141 -93 5 -45
19 -62 54 -67 30 -4 43 2 34 15 -22 36 -33 242 -13 242 10 0 47 -28 81 -62z
m282 -466 c0 23 59 -53 59 -78 0 -11 -13 -8 -30 6 -16 13 -24 35 -17 47 7 13
0 11 -15 -3 -31 -29 29 -94 66 -72 10 6 30 1 45 -11 23 -19 26 -15 18 23 -7
32 -5 38 8 20 22 -31 54 -1 71 66 9 40 9 40 12 0 7 -90 59 -126 103 -70 21 28
38 39 39 26 0 -13 -9 -29 -19 -35 -38 -24 0 -72 40 -51 24 13 41 13 49 0 7
-11 2 -20 -10 -20 -12 0 -17 -9 -10 -20 7 -11 -4 -20 -24 -20 -30 -1 -31 -4
-6 -20 25 -16 24 -19 -7 -20 -33 0 -34 -4 -10 -34 20 -25 20 -30 1 -18 -20 12
-25 -4 -21 -68 3 -45 12 -87 20 -92 8 -5 10 -23 4 -39 -7 -18 -2 -28 12 -25
13 3 39 -16 58 -43 18 -27 22 -42 8 -34 -33 20 -32 4 6 -68 16 -32 25 -59 20
-59 -6 0 -29 36 -51 81 -23 44 -50 75 -61 69 -10 -7 -13 3 -6 24 10 28 7 31
-12 13 -19 -17 -13 -58 28 -187 29 -91 48 -170 43 -175 -5 -4 -32 62 -60 148
-29 88 -47 126 -42 87 4 -38 13 -106 19 -150 l10 -80 -20 80 c-82 321 -83 327
-60 364 20 31 21 30 10 -12 -9 -31 -6 -43 9 -34 14 10 18 -7 10 -52 l-12 -66
32 58 c25 43 27 64 10 85 -13 15 -17 27 -10 27 7 0 3 20 -10 44 l-24 45 -21
-50 c-11 -27 -26 -107 -33 -179 l-14 -130 -3 153 c-2 111 -11 156 -31 164 -30
11 -60 -38 -41 -69 6 -9 -2 -13 -17 -7 -32 13 -61 -43 -41 -76 8 -13 4 -15
-13 -5 -20 12 -23 7 -14 -18 8 -19 5 -29 -5 -22 -11 6 -33 -14 -51 -44 -30
-53 -31 -53 -18 -6 13 46 11 48 -24 21 -30 -23 -33 -23 -13 -1 30 33 33 67 5
50 -58 -36 -8 38 71 104 93 78 116 161 51 182 -19 6 -23 0 -12 -18 13 -23 11
-23 -11 -3 -37 34 -69 32 -40 -3 16 -20 17 -32 1 -42 -11 -7 -19 -1 -15 14 3
16 -18 28 -55 31 -57 6 -58 4 -21 -25 28 -22 31 -30 10 -31 -21 0 -19 -8 9
-29 21 -16 46 -24 55 -18 47 29 8 -15 -48 -55 -36 -25 -55 -32 -44 -16 28 38
25 84 -5 94 -15 5 -21 -8 -16 -32 5 -30 -1 -38 -23 -29 -25 9 -25 15 -4 28 20
13 17 18 -13 19 -31 2 -27 7 17 23 81 29 29 56 -87 45 -69 -6 -78 -4 -40 9 28
10 77 20 110 23 l60 5 -70 14 c-50 11 -36 13 50 8 118 -8 119 -7 60 22 -59 29
-35 29 73 -2 27 -8 37 -5 29 9 -22 36 -174 69 -199 44 -30 -30 -59 -26 -46 8
6 16 0 32 -13 37 -13 4 1 4 31 -1 40 -6 55 0 55 23 0 18 -11 33 -25 34 -17 1
-16 5 3 12 21 8 15 19 -20 40 l-48 28 50 -12 50 -13 -50 43 c-42 36 -35 34 42
-8 106 -60 138 -48 73 27 l-45 51 55 -48 c30 -27 55 -41 56 -30z m-925 -117
l6 -75 -101 0 -101 0 0 81 0 81 95 -6 c94 -6 95 -7 101 -81z m576 -50 c-5 -74
-10 -155 -11 -180 -1 -40 -11 -45 -91 -45 l-90 0 0 180 0 180 101 0 100 0 -9
-135z m-572 -465 l0 -400 -100 0 -100 0 0 387 c0 432 -5 413 113 413 l87 0 0
-400z m644 203 c-19 -12 -6 -32 50 -74 42 -32 85 -66 96 -76 12 -11 17 -115
13 -258 l-6 -241 92 11 c121 13 125 20 64 99 -58 76 -55 109 32 335 43 110 52
122 64 83 8 -25 9 -50 3 -57 -7 -6 -12 1 -13 17 0 22 -59 -89 -59 -112 0 -42
100 54 105 100 3 33 13 -48 22 -180 8 -132 17 -253 19 -270 8 -52 60 -32 77
28 20 75 47 91 151 92 96 0 99 -7 89 -182 l-7 -118 -418 0 c-321 0 -418 6
-419 25 0 16 -6 14 -18 -5 -13 -22 -43 -29 -110 -23 l-93 7 4 397 4 397 122 7
c67 4 131 9 142 11 11 2 8 -4 -6 -13z m729 -377 c-9 -8 -94 183 -92 208 1 9
23 -33 50 -92 27 -60 46 -112 42 -116z m215 -458 c47 -18 40 -103 -9 -118 -79
-25 -134 68 -64 108 43 25 36 24 73 10z m-1107 -127 c-53 -104 -101 -167 -101
-131 0 28 134 250 151 250 5 0 -17 -53 -50 -119z m-119 64 c-27 -48 -129 -163
-110 -125 20 43 108 160 120 160 5 0 1 -16 -10 -35z m388 -98 l-32 -76 126
-113 126 -113 -365 -3 -365 -3 0 124 0 124 55 -49 c30 -26 62 -59 71 -73 11
-16 69 -25 172 -25 l156 0 -9 51 c-6 29 -1 71 11 95 12 24 33 80 47 124 14 46
28 66 32 47 4 -18 -7 -68 -25 -110z m121 -37 l-31 -80 12 90 c16 133 35 185
43 120 4 -27 -7 -86 -24 -130z m387 30 c-2 -75 -5 -81 -18 -40 -24 76 -24 197
0 160 11 -16 19 -70 18 -120z m132 -20 c10 -67 8 -84 -8 -68 -13 11 -28 70
-33 130 -12 126 17 82 41 -62z m-790 0 c-58 -114 -71 -90 -17 32 24 54 47 87
51 74 5 -12 -11 -61 -34 -106z"/>
<path d="M2922 5783 c-16 -29 -14 -45 7 -63 46 -38 101 -16 101 40 0 65 -77
81 -108 23z"/>
<path d="M3862 5793 c-33 -41 -5 -93 51 -93 57 0 82 48 47 90 -31 37 -68 38
-98 3z"/>
<path d="M3407 5430 c0 -17 8 -30 18 -30 9 0 12 -9 5 -20 -7 -11 -2 -20 10
-20 12 0 18 -7 13 -16 -6 -8 31 -17 82 -19 103 -5 98 5 -37 82 -71 41 -91 46
-91 23z"/>
<path d="M3067 4989 c-7 -18 -2 -42 9 -53 29 -29 86 16 71 55 -15 39 -65 37
-80 -2z"/>
<path d="M3274 4887 c-31 -31 -13 -70 31 -63 25 3 45 19 45 36 0 32 -53 51
-76 27z"/>
<path d="M3920 4470 c-50 -60 21 -121 76 -66 33 33 30 51 -14 75 -28 15 -44
13 -62 -9z"/>
<path d="M3814 6425 c-21 -38 12 -165 43 -166 18 -1 58 -5 88 -9 75 -10 69 11
-27 108 -89 88 -91 90 -104 67z"/>
<path d="M2434 6324 c-94 -96 -93 -104 16 -104 l90 0 0 90 c0 110 -11 111
-106 14z"/>
<path d="M2008 5905 c-44 -52 -250 -261 -459 -465 -208 -203 -381 -379 -383
-390 -2 -11 79 -94 180 -185 l183 -164 61 57 c33 32 128 113 210 182 l150 125
6 -96 c7 -102 -103 -248 -241 -321 -78 -41 -69 -71 47 -176 107 -96 143 -106
303 -79 l75 12 -11 663 c-5 364 -9 723 -8 797 1 160 -9 164 -113 40z m3 -463
c33 -21 24 -23 -59 -13 -54 6 -119 11 -145 11 -26 0 -47 9 -47 19 0 27 204 13
251 -17z m-117 -74 c6 -18 0 -39 -15 -48 -26 -17 17 -28 171 -47 33 -4 8 -8
-55 -10 -79 -2 -126 -14 -151 -38 -70 -67 -131 -115 -118 -92 8 13 -2 29 -21
36 -18 7 -27 7 -20 -1 8 -8 -3 -27 -26 -43 -22 -15 -38 -43 -35 -62 4 -18 -5
-31 -19 -28 -14 3 -23 -6 -20 -19 7 -33 -61 -44 -96 -15 -52 43 13 183 76 164
8 -3 15 5 15 16 0 12 8 16 18 10 9 -6 30 5 45 23 18 23 19 29 2 19 -14 -9 -25
-6 -25 4 0 11 -20 24 -45 29 -25 5 0 5 55 1 56 -4 89 -1 75 9 -19 12 -17 26 6
60 34 48 89 59 90 19 0 -14 9 -9 21 10 25 44 55 45 72 3z m36 -268 c-213 -33
-290 -39 -290 -21 0 18 124 32 310 35 74 1 72 0 -20 -14z"/>
<path d="M4271 5248 c8 -858 -5 -803 189 -795 152 7 330 123 258 168 -83 52
-258 215 -267 249 -36 147 -33 195 14 183 25 -7 52 -13 61 -13 9 0 11 -8 5
-18 -12 -19 294 -288 322 -283 10 2 101 85 203 186 l187 184 -119 110 c-65 61
-218 204 -341 317 -122 114 -282 265 -355 335 -73 71 -140 129 -148 129 -8 0
-12 -338 -9 -752z m229 382 c0 -5 -36 -28 -80 -50 -96 -49 -106 -35 -15 20 64
39 95 49 95 30z m72 -63 c-75 -40 -186 -73 -160 -47 20 20 164 77 198 78 11 0
-6 -14 -38 -31z m68 -66 c-38 -22 -266 -82 -276 -72 -13 13 205 89 256 89 38
1 43 -3 20 -17z m66 -81 c-24 -10 -78 -22 -120 -27 -42 -4 -116 -14 -166 -20
-67 -9 -54 -2 50 25 149 40 320 55 236 22z m74 -80 c-93 -21 -452 -45 -437
-30 7 7 70 17 139 22 70 6 131 14 136 19 5 5 59 8 120 7 102 -2 106 -3 42 -18z
m110 -79 c55 -11 -21 -16 -240 -16 -176 0 -293 6 -260 14 84 21 404 22 500 2z
m-141 -83 c265 -27 394 -63 171 -47 -323 22 -433 32 -510 48 l-80 16 99 3 c55
1 199 -8 320 -20z m117 -122 c97 -22 172 -44 167 -49 -12 -13 -337 45 -463 82
l-100 30 110 -11 c61 -6 189 -29 286 -52z m-143 -68 c70 -18 150 -45 177 -60
l50 -28 -60 13 c-87 18 -344 104 -317 106 13 0 81 -14 150 -31z m-143 -380 c0
-18 -71 32 -160 113 l-90 83 125 -93 c69 -51 125 -98 125 -103z m-60 -85 c0
-10 -54 31 -125 95 -30 27 -55 59 -55 70 0 11 41 -19 90 -68 50 -49 90 -92 90
-97z"/>
<path d="M2459 4289 c-42 -51 27 -111 74 -64 33 32 11 95 -33 95 -8 0 -27 -14
-41 -31z"/>
<path d="M3685 3935 c13 -38 75 -43 75 -6 0 18 -17 31 -42 31 -24 0 -38 -10
-33 -25z"/>
<path d="M2693 3846 c-7 -7 -13 -25 -13 -39 0 -30 52 -37 69 -9 13 22 -38 67
-56 48z"/>
<path d="M2700 3603 c0 -8 43 -48 95 -89 52 -41 180 -155 284 -254 104 -99
194 -178 201 -175 7 3 115 115 240 250 125 135 235 245 244 245 9 0 16 9 16
20 0 13 -191 20 -540 19 -297 0 -540 -7 -540 -16z m480 -134 c0 -27 -12 -49
-26 -49 -20 0 -29 65 -16 116 7 27 42 -29 42 -67z m226 15 c10 -50 -47 -92
-62 -47 -6 19 -15 19 -36 1 -22 -18 -28 -15 -29 15 0 35 -2 35 -21 2 -30 -52
-52 -42 -43 20 12 78 176 86 191 9z m-10 -139 c3 -22 -8 -45 -25 -52 -22 -8
-31 1 -32 33 l-2 44 -18 -45 c-22 -56 -46 -60 -29 -5 15 47 -20 55 -38 8 -10
-26 -18 -28 -42 -8 -25 20 -30 19 -30 -8 0 -49 -34 -38 -44 15 -8 41 -1 47 60
49 38 2 74 7 79 12 26 26 116 -6 121 -43z"/>
</g>
</svg>
